<?xml version="1.0" encoding="utf-8"?>
<!-- Generator: Adobe Illustrator 21.0.0, SVG Export Plug-In . SVG Version: 6.00 Build 0)  -->
<svg version="1.0" id="Layer_1" xmlns="http://www.w3.org/2000/svg" xmlns:xlink="http://www.w3.org/1999/xlink" x="0px" y="0px"
	 viewBox="0 0 361.5 272.9" enable-background="new 0 0 361.5 272.9" xml:space="preserve">
<g id="BACKGROUND_2">
	<g>
		<g>
			<g>
				<polygon fill="#FBB040" points="141.3,187 134.1,187 130.3,200.4 138,200.4 133.2,219 147.2,195.3 138.9,195.3 				"/>
				<polygon fill="#FBB040" points="71.4,208.1 64.3,208.1 60.5,221.5 68.1,221.5 63.4,240.1 77.3,216.4 69.1,216.4 				"/>
				<polygon fill="#FBB040" points="291.7,207.4 284.6,207.4 280.8,220.8 288.4,220.8 283.6,239.4 297.6,215.7 289.3,215.7 				"/>
				<polygon fill="#FBB040" points="164.9,195.8 155.9,195.8 151,212.8 160.7,212.8 154.7,236.6 172.5,206.3 161.9,206.3 				"/>
				<polygon fill="#FBB040" points="191.8,187 184.7,187 180.8,200.4 188.5,200.4 183.7,219 197.7,195.3 189.4,195.3 				"/>
				<polygon fill="#FBB040" points="215.4,195.8 206.4,195.8 201.5,212.8 211.3,212.8 205.2,236.6 223,206.3 212.4,206.3 				"/>
			</g>
			<g>
				<g>
					<g>
						<path fill="#4BBFE8" d="M326.9,114.9C324,109,318,105,311,105c-2.3,0-4.5,0.5-6.6,1.3c-3.2-4-8.2-6.6-13.8-6.6
							c-4.8,0-9.1,1.9-12.3,5c11.6,8.4,19.4,21.4,21.4,36.1H337c2.1-2.7,3.4-6.2,3.4-9.9C340.4,122.8,334.6,116.1,326.9,114.9z"/>
						<path fill="#4BBFE8" d="M154.5,52.9c15.4,0,29.9,6.1,40.6,16.8c5-1.4,10.1-2.1,15.3-2.1c11.3,0,21.9,3.2,31,9
							c0-0.6,0.1-1.3,0.1-1.9c0-11.7-8.6-21.5-19.8-23.3c-4.2-8.6-13-14.5-23.2-14.5c-3.4,0-6.7,0.7-9.6,1.9
							c-4.7-5.9-12-9.7-20.1-9.7c-12.9,0-23.6,9.5-25.5,21.8c-7.6,0.6-14.3,4.6-18.6,10.4C133.6,55.8,143.9,52.9,154.5,52.9z"/>
						<path fill="#4BBFE8" d="M68.4,112.2c8.3-8.9,19-14.9,30.7-17.3c1.7-6,4.4-11.7,7.9-16.8c-2.7-0.9-5.5-1.4-8.4-1.4
							c-3.5,0-6.9,0.7-10,1.9c-4.9-6.1-12.4-10-20.8-10c-13.3,0-24.4,9.8-26.4,22.6c-13.7,1.1-24.5,12.6-24.5,26.6
							c0,4.8,1.3,9.2,3.4,13.1h36.5C59.4,124,63.3,117.6,68.4,112.2z"/>
					</g>
					<g>
						<path fill="#FFFFFF" d="M281.9,175c5.8-7.5,9.3-17,9.3-27.2c0-22.1-16.1-40.4-37.2-43.9c-7.9-16.1-24.4-27.2-43.6-27.2
							c-6.4,0-12.5,1.3-18.1,3.5C183.5,69.1,169.8,62,154.5,62c-24.2,0-44.3,17.8-47.9,41c-24.9,2-44.5,22.9-44.5,48.3
							c0,8.7,2.3,16.8,6.3,23.8h213.5V175z"/>
						<g>
							<g>
								<g>
									<circle fill="#414042" cx="138.5" cy="128.6" r="8.5"/>
									<circle fill="#FFFFFF" cx="140.8" cy="124.9" r="4.5"/>
									<path fill="#FFFFFF" d="M127.2,115.1l24.1,15.6c0,0,3.8-17.6,3.3-17.6c-0.6,0-8.6-7.1-16.9-7.1"/>
								</g>
								<g>
									<circle fill="#414042" cx="214.8" cy="128.6" r="8.5"/>
									<circle fill="#FFFFFF" cx="212.5" cy="124.9" r="4.5"/>
									<path fill="#FFFFFF" d="M226.1,115.1L202,130.7c0,0-3.8-17.6-3.3-17.6c0.6,0,8.6-7.1,16.9-7.1"/>
								</g>
							</g>
							<g>
								<path fill="#414042" d="M187.9,156c-0.7,0-1.2-0.6-1.2-1.2c0-5.5-4.5-10-10-10s-10,4.5-10,10c0,0.7-0.6,1.2-1.2,1.2
									c-0.7,0-1.2-0.6-1.2-1.2c0-6.9,5.6-12.5,12.5-12.5s12.5,5.6,12.5,12.5C189.1,155.4,188.6,156,187.9,156z"/>
							</g>
						</g>
						<path opacity="0.1" fill="#414042" enable-background="new    " d="M291.2,147.8c0-4.4-0.6-8.6-1.8-12.6
							C263,151.7,182,190.4,64.7,135.5c-1.7,4.9-2.6,10.2-2.6,15.8c0,8.7,2.3,16.8,6.3,23.8H282
							C287.7,167.5,291.2,158.1,291.2,147.8z"/>
					</g>
				</g>
				<g>
					<path fill="#FFFFFF" d="M285.3,36.5c-14.8,0-26.9,12-26.9,26.9c0,5,1.4,9.6,3.7,13.6l-4.4,12.6l11.2-4.9
						c4.5,3.5,10.2,5.5,16.3,5.5c14.8,0,26.9-12,26.9-26.9C312.1,48.5,300.1,36.5,285.3,36.5z"/>
					<g enable-background="new    ">
						<path fill="#4BBFE8" d="M276.7,52.6l-1.1,9.5h-3.1c-0.3-1.5-0.5-3.1-0.7-5c-0.1,0.8-0.3,2.5-0.7,5H268l-1.1-9.5h2.4l0.3,3.3
							l0.3,3.2c0.1-1.7,0.3-3.8,0.7-6.5h2.6c0,0.3,0.1,1.3,0.3,3.1l0.3,3.6c0.1-2.3,0.4-4.6,0.7-6.8H276.7z"/>
						<path fill="#4BBFE8" d="M279.5,52.6v2.1c0.2-0.2,0.4-0.3,0.7-0.4c0.2-0.1,0.5-0.1,0.8-0.1c0.4,0,0.8,0.1,1.1,0.3
							c0.3,0.2,0.5,0.5,0.5,0.7c0.1,0.3,0.1,0.8,0.1,1.5v5.4h-2.4v-5.5c0-0.5,0-0.7-0.1-0.9c0-0.1-0.1-0.2-0.3-0.2
							c-0.1,0-0.2,0.1-0.3,0.2s-0.1,0.4-0.1,0.8v5.6h-2.4v-9.5H279.5z"/>
						<path fill="#4BBFE8" d="M288.8,57v1.9c0,0.7,0,1.2-0.1,1.5s-0.2,0.6-0.5,0.9c-0.2,0.3-0.5,0.5-0.9,0.6s-0.8,0.2-1.2,0.2
							c-0.5,0-1-0.1-1.3-0.2s-0.6-0.3-0.8-0.5c-0.2-0.2-0.3-0.5-0.4-0.8c-0.1-0.3-0.1-0.8-0.1-1.5v-2c0-0.7,0.1-1.3,0.2-1.7
							c0.2-0.4,0.4-0.7,0.8-1c0.4-0.2,0.9-0.4,1.6-0.4c0.5,0,1,0.1,1.4,0.2s0.7,0.4,0.9,0.6c0.2,0.3,0.3,0.5,0.4,0.8
							C288.7,56.1,288.8,56.5,288.8,57z M286.4,56.4c0-0.4,0-0.7-0.1-0.8c0-0.1-0.1-0.2-0.3-0.2c-0.1,0-0.2,0.1-0.3,0.2
							c0,0.1-0.1,0.4-0.1,0.8V60c0,0.4,0,0.6,0.1,0.7s0.1,0.2,0.3,0.2c0.1,0,0.2-0.1,0.3-0.2c0-0.1,0.1-0.3,0.1-0.7V56.4z"/>
						<path fill="#4BBFE8" d="M294.9,57v1.9c0,0.7,0,1.2-0.1,1.5s-0.2,0.6-0.5,0.9c-0.2,0.3-0.5,0.5-0.9,0.6s-0.8,0.2-1.2,0.2
							c-0.5,0-1-0.1-1.3-0.2s-0.6-0.3-0.8-0.5c-0.2-0.2-0.3-0.5-0.4-0.8c-0.1-0.3-0.1-0.8-0.1-1.5v-2c0-0.7,0.1-1.3,0.2-1.7
							c0.2-0.4,0.4-0.7,0.8-1c0.4-0.2,0.9-0.4,1.6-0.4c0.5,0,1,0.1,1.4,0.2s0.7,0.4,0.9,0.6c0.2,0.3,0.3,0.5,0.4,0.8
							C294.9,56.1,294.9,56.5,294.9,57z M292.5,56.4c0-0.4,0-0.7-0.1-0.8c0-0.1-0.1-0.2-0.3-0.2c-0.1,0-0.2,0.1-0.3,0.2
							c0,0.1-0.1,0.4-0.1,0.8V60c0,0.4,0,0.6,0.1,0.7s0.1,0.2,0.3,0.2c0.1,0,0.2-0.1,0.3-0.2c0-0.1,0.1-0.3,0.1-0.7V56.4z"/>
					</g>
					<g enable-background="new    ">
						<path fill="#4BBFE8" d="M272.7,66.9v1.9c0,0.7,0,1.2-0.1,1.5s-0.2,0.6-0.5,0.9c-0.2,0.3-0.5,0.5-0.9,0.6s-0.8,0.2-1.2,0.2
							c-0.5,0-1-0.1-1.3-0.2s-0.6-0.3-0.8-0.5c-0.2-0.2-0.3-0.5-0.4-0.8c-0.1-0.3-0.1-0.8-0.1-1.5v-2c0-0.7,0.1-1.3,0.2-1.7
							c0.2-0.4,0.4-0.7,0.8-1c0.4-0.2,0.9-0.4,1.6-0.4c0.5,0,1,0.1,1.4,0.2s0.7,0.4,0.9,0.6c0.2,0.3,0.3,0.5,0.4,0.8
							C272.6,66,272.7,66.4,272.7,66.9z M270.3,66.3c0-0.4,0-0.7-0.1-0.8c0-0.1-0.1-0.2-0.3-0.2c-0.1,0-0.2,0.1-0.3,0.2
							c0,0.1-0.1,0.4-0.1,0.8v3.5c0,0.4,0,0.6,0.1,0.7s0.1,0.2,0.3,0.2c0.1,0,0.2-0.1,0.3-0.2c0-0.1,0.1-0.3,0.1-0.7V66.3z"/>
						<path fill="#4BBFE8" d="M278.8,66.9v1.9c0,0.7,0,1.2-0.1,1.5s-0.2,0.6-0.5,0.9c-0.2,0.3-0.5,0.5-0.9,0.6s-0.8,0.2-1.2,0.2
							c-0.5,0-1-0.1-1.3-0.2s-0.6-0.3-0.8-0.5c-0.2-0.2-0.3-0.5-0.4-0.8c-0.1-0.3-0.1-0.8-0.1-1.5v-2c0-0.7,0.1-1.3,0.2-1.7
							c0.2-0.4,0.4-0.7,0.8-1c0.4-0.2,0.9-0.4,1.6-0.4c0.5,0,1,0.1,1.4,0.2s0.7,0.4,0.9,0.6c0.2,0.3,0.3,0.5,0.4,0.8
							C278.8,66,278.8,66.4,278.8,66.9z M276.4,66.3c0-0.4,0-0.7-0.1-0.8c0-0.1-0.1-0.2-0.3-0.2c-0.1,0-0.2,0.1-0.3,0.2
							c0,0.1-0.1,0.4-0.1,0.8v3.5c0,0.4,0,0.6,0.1,0.7s0.1,0.2,0.3,0.2c0.1,0,0.2-0.1,0.3-0.2c0-0.1,0.1-0.3,0.1-0.7V66.3z"/>
						<path fill="#4BBFE8" d="M282,64.2l0,0.7c0.2-0.3,0.4-0.5,0.7-0.6c0.3-0.1,0.5-0.2,0.8-0.2c0.4,0,0.7,0.1,1,0.3
							c0.3,0.2,0.4,0.4,0.5,0.7c0.1,0.3,0.1,0.7,0.1,1.3v3.3c0,0.7,0,1.2-0.1,1.5c-0.1,0.3-0.3,0.5-0.5,0.7
							c-0.3,0.2-0.6,0.3-0.9,0.3c-0.3,0-0.6-0.1-0.8-0.2c-0.3-0.1-0.5-0.3-0.7-0.6v1.8h-2.4v-8.9H282z M282.7,66.5
							c0-0.5,0-0.8-0.1-0.9c0-0.1-0.1-0.2-0.3-0.2c-0.2,0-0.3,0.1-0.3,0.2c0,0.1-0.1,0.4-0.1,0.9v3.2c0,0.5,0,0.8,0.1,0.9
							s0.1,0.2,0.3,0.2c0.2,0,0.2-0.1,0.3-0.2c0-0.1,0.1-0.4,0.1-0.8V66.5z"/>
						<path fill="#4BBFE8" d="M290.7,66.7h-2.1v-0.4c0-0.4,0-0.6-0.1-0.7c0-0.1-0.1-0.1-0.3-0.1c-0.1,0-0.2,0-0.3,0.1
							c-0.1,0.1-0.1,0.2-0.1,0.4c0,0.2,0,0.4,0,0.5c0,0.1,0.1,0.2,0.3,0.4s0.5,0.3,1,0.6c0.7,0.3,1.1,0.7,1.4,1
							c0.2,0.3,0.3,0.7,0.3,1.3c0,0.6-0.1,1.1-0.2,1.4c-0.2,0.3-0.4,0.6-0.8,0.7c-0.4,0.2-0.8,0.3-1.4,0.3c-0.6,0-1.1-0.1-1.5-0.3
							c-0.4-0.2-0.7-0.4-0.9-0.8c-0.2-0.3-0.2-0.8-0.2-1.5v-0.4h2.1v0.5c0,0.4,0,0.7,0.1,0.8c0.1,0.1,0.2,0.2,0.3,0.2
							c0.2,0,0.3,0,0.4-0.1c0.1-0.1,0.1-0.3,0.1-0.5c0-0.4,0-0.6-0.1-0.7c-0.1-0.1-0.5-0.4-1.4-0.8c-0.7-0.4-1.1-0.7-1.3-1.1
							c-0.2-0.3-0.2-0.7-0.2-1.1c0-0.6,0.1-1.1,0.2-1.4c0.2-0.3,0.4-0.5,0.8-0.7c0.4-0.2,0.9-0.2,1.4-0.2c0.5,0,1,0.1,1.3,0.2
							c0.4,0.1,0.6,0.3,0.8,0.5c0.2,0.2,0.3,0.4,0.4,0.6c0,0.2,0.1,0.5,0.1,0.9V66.7z"/>
						<path fill="#4BBFE8" d="M294.1,62.5l-0.4,7.2h-1.8l-0.4-7.2H294.1z M293.9,70.1V72h-2.2v-1.9H293.9z"/>
					</g>
					<path opacity="0.1" fill="#414042" enable-background="new    " d="M285.3,90.2c14.8,0,26.9-12,26.9-26.9
						c0-5.8-1.9-11.2-5-15.6c-5.3,11.9-17.8,29.6-45.2,29.7l-4.2,12.1l11.2-4.9C273.5,88.1,279.1,90.2,285.3,90.2z"/>
				</g>
			</g>
		</g>
	</g>
</g>
</svg>
